<svg xmlns="http://www.w3.org/2000/svg" width="21.355" height="18" viewBox="0 0 21.355 18">
  <g id="Group_19" data-name="Group 19" opacity="0.87">
    <path id="Path_24" data-name="Path 24" d="M-292.528,635.622h-7.244a2.851,2.851,0,0,1,1.79,1.2,2.562,2.562,0,0,1,.38,2.144,2.729,2.729,0,0,1-2.861,2.038,2.744,2.744,0,0,1-2.442-2.469,2.8,2.8,0,0,1,2.249-2.925h-.535a1.793,1.793,0,0,1-1.9-1.488q-.39-1.552-.779-3.1-.739-2.967-1.479-5.935c-.02-.081-.047-.16-.078-.268q-.936,0-1.875,0a.91.91,0,0,1-1.011-.889.923.923,0,0,1,1-.908c.6-.007,1.2-.01,1.8,0a1.807,1.807,0,0,1,1.869,1.5c.773,3.085,1.545,6.169,2.322,9.273h10.327l1.706-6.266h-12.279l-.452-1.79h15.059c-.21.779-.418,1.553-.628,2.327-.543,2-1.1,4-1.626,6.012a1.852,1.852,0,0,1-2.008,1.537c-.158-.011-.317,0-.523,0,1.686.572,2.518,1.706,2.289,3.069a2.7,2.7,0,0,1-2.737,2.327,2.716,2.716,0,0,1-2.605-2.348C-295.01,637.3-294.169,636.165-292.528,635.622Zm-6.792,2.7a.886.886,0,0,0-.878-.9.894.894,0,0,0-.917.894.887.887,0,0,0,.91.9A.879.879,0,0,0-299.32,638.321Zm8.095.008a.888.888,0,0,0-.871-.908.894.894,0,0,0-.924.886.887.887,0,0,0,.9.9A.879.879,0,0,0-291.225,638.329Z" transform="translate(308.31 -623.016)" fill="#9e9e9e"/>
  </g>
</svg>
